<svg width="486" height="139" fill="none" xmlns="http://www.w3.org/2000/svg"><path d="M6.474 20.4H19.11v44.304h27.378V75H6.474V20.4zm92.867 12.636V75H87.798v-4.992a16.56 16.56 0 01-5.773 4.212c-2.236.936-4.654 1.404-7.254 1.404-5.511 0-9.88-1.586-13.104-4.758-3.224-3.172-4.836-7.878-4.836-14.118V33.036H69v21.918c0 6.76 2.835 10.14 8.502 10.14 2.912 0 5.252-.936 7.02-2.808 1.769-1.924 2.653-4.758 2.653-8.502V33.036H99.34zm36.233 42.588c-4.472 0-8.502-.91-12.09-2.73-3.536-1.872-6.318-4.446-8.346-7.722-1.976-3.276-2.964-6.994-2.964-11.154s.988-7.878 2.964-11.154c2.028-3.276 4.81-5.824 8.346-7.644 3.588-1.872 7.618-2.808 12.09-2.808 4.42 0 8.268.936 11.544 2.808 3.328 1.82 5.746 4.446 7.254 7.878l-9.438 5.07c-2.184-3.848-5.33-5.772-9.438-5.772-3.172 0-5.798 1.04-7.878 3.12s-3.12 4.914-3.12 8.502c0 3.588 1.04 6.422 3.12 8.502 2.08 2.08 4.706 3.12 7.878 3.12 4.16 0 7.306-1.924 9.438-5.772l9.438 5.148c-1.508 3.328-3.926 5.928-7.254 7.8-3.276 1.872-7.124 2.808-11.544 2.808zm48.198-17.082l-5.85 5.772V75h-12.168V17.124h12.168v32.76l17.784-16.848h14.508L192.742 50.82 211.774 75h-14.742l-13.26-16.458zm77.432-4.368c0 .156-.078 1.248-.234 3.276h-31.746c.572 2.6 1.924 4.654 4.056 6.162s4.784 2.262 7.956 2.262c2.184 0 4.108-.312 5.772-.936 1.716-.676 3.302-1.716 4.758-3.12l6.474 7.02c-3.952 4.524-9.724 6.786-17.316 6.786-4.732 0-8.918-.91-12.558-2.73-3.64-1.872-6.448-4.446-8.424-7.722-1.976-3.276-2.964-6.994-2.964-11.154 0-4.108.962-7.8 2.886-11.076 1.976-3.328 4.654-5.902 8.034-7.722 3.432-1.872 7.254-2.808 11.466-2.808 4.108 0 7.826.884 11.154 2.652 3.328 1.768 5.928 4.316 7.8 7.644 1.924 3.276 2.886 7.098 2.886 11.466zm-21.762-12.558c-2.756 0-5.07.78-6.942 2.34-1.872 1.56-3.016 3.692-3.432 6.396h20.67c-.416-2.652-1.56-4.758-3.432-6.318-1.872-1.612-4.16-2.418-6.864-2.418zm75.649 12.558c0 .156-.078 1.248-.234 3.276h-31.746c.572 2.6 1.924 4.654 4.056 6.162s4.784 2.262 7.956 2.262c2.184 0 4.108-.312 5.772-.936 1.716-.676 3.302-1.716 4.758-3.12l6.474 7.02c-3.952 4.524-9.724 6.786-17.316 6.786-4.732 0-8.918-.91-12.558-2.73-3.64-1.872-6.448-4.446-8.424-7.722-1.976-3.276-2.964-6.994-2.964-11.154 0-4.108.962-7.8 2.886-11.076 1.976-3.328 4.654-5.902 8.034-7.722 3.432-1.872 7.254-2.808 11.466-2.808 4.108 0 7.826.884 11.154 2.652 3.328 1.768 5.928 4.316 7.8 7.644 1.924 3.276 2.886 7.098 2.886 11.466zm-21.762-12.558c-2.756 0-5.07.78-6.942 2.34-1.872 1.56-3.016 3.692-3.432 6.396h20.67c-.416-2.652-1.56-4.758-3.432-6.318-1.872-1.612-4.16-2.418-6.864-2.418zm115.055-9.204c5.252 0 9.412 1.56 12.48 4.68 3.12 3.068 4.68 7.696 4.68 13.884V75h-12.168V52.848c0-3.328-.702-5.798-2.106-7.41-1.352-1.664-3.302-2.496-5.85-2.496-2.86 0-5.122.936-6.786 2.808-1.664 1.82-2.496 4.55-2.496 8.19V75H383.97V52.848c0-6.604-2.652-9.906-7.956-9.906-2.808 0-5.044.936-6.708 2.808-1.664 1.82-2.496 4.55-2.496 8.19V75h-12.168V33.036h11.622v4.836c1.56-1.768 3.458-3.12 5.694-4.056 2.288-.936 4.784-1.404 7.488-1.404 2.964 0 5.642.598 8.034 1.794 2.392 1.144 4.316 2.834 5.772 5.07 1.716-2.184 3.874-3.874 6.474-5.07 2.652-1.196 5.538-1.794 8.658-1.794zm74.309 21.762c0 .156-.078 1.248-.234 3.276h-31.746c.572 2.6 1.924 4.654 4.056 6.162s4.784 2.262 7.956 2.262c2.184 0 4.108-.312 5.772-.936 1.716-.676 3.302-1.716 4.758-3.12l6.474 7.02c-3.952 4.524-9.724 6.786-17.316 6.786-4.732 0-8.918-.91-12.558-2.73-3.64-1.872-6.448-4.446-8.424-7.722-1.976-3.276-2.964-6.994-2.964-11.154 0-4.108.962-7.8 2.886-11.076 1.976-3.328 4.654-5.902 8.034-7.722 3.432-1.872 7.254-2.808 11.466-2.808 4.108 0 7.826.884 11.154 2.652 3.328 1.768 5.928 4.316 7.8 7.644 1.924 3.276 2.886 7.098 2.886 11.466zm-21.762-12.558c-2.756 0-5.07.78-6.942 2.34-1.872 1.56-3.016 3.692-3.432 6.396h20.67c-.416-2.652-1.56-4.758-3.432-6.318-1.872-1.612-4.16-2.418-6.864-2.418z" fill="#fff"/><path d="M202.964 106.419c-3.771-.943-3.929 1.964-3.536 3.535 88.686 70.124 125.221-11.49 136.122-24.454.236-4.479-3.044-3.634-4.714-2.652-62.168 65.409-123.158 24.749-127.872 23.571z" fill="#fff" stroke="#fff"/><rect x="190" y="110.545" width="15.91" height="4.714" rx="2.357" transform="rotate(-63.046 190 110.545)" fill="#fff"/><rect x="343.59" y="83.763" width="15.91" height="4.714" rx="2.357" transform="rotate(-133.671 343.59 83.763)" fill="#fff"/></svg>