<svg display="none"
    xmlns="http://www.w3.org/2000/svg">
    <symbol id="logo" viewBox="0 0 486 139">
        <path d="M6.474 20.4H19.11V64.704H46.488V75H6.474V20.4ZM99.3415 33.036V75H87.7975V70.008C86.1855 71.828 84.2615 73.232 82.0255 74.22C79.7895 75.156 77.3715 75.624 74.7715 75.624C69.2595 75.624 64.8915 74.038 61.6675 70.866C58.4435 67.694 56.8315 62.988 56.8315 56.748V33.036H68.9995V54.954C68.9995 61.714 71.8335 65.094 77.5015 65.094C80.4135 65.094 82.7535 64.158 84.5215 62.286C86.2895 60.362 87.1735 57.528 87.1735 53.784V33.036H99.3415ZM135.574 75.624C131.102 75.624 127.072 74.714 123.484 72.894C119.948 71.022 117.166 68.448 115.138 65.172C113.162 61.896 112.174 58.178 112.174 54.018C112.174 49.858 113.162 46.14 115.138 42.864C117.166 39.588 119.948 37.04 123.484 35.22C127.072 33.348 131.102 32.412 135.574 32.412C139.994 32.412 143.842 33.348 147.118 35.22C150.446 37.04 152.864 39.666 154.372 43.098L144.934 48.168C142.75 44.32 139.604 42.396 135.496 42.396C132.324 42.396 129.698 43.436 127.618 45.516C125.538 47.596 124.498 50.43 124.498 54.018C124.498 57.606 125.538 60.44 127.618 62.52C129.698 64.6 132.324 65.64 135.496 65.64C139.656 65.64 142.802 63.716 144.934 59.868L154.372 65.016C152.864 68.344 150.446 70.944 147.118 72.816C143.842 74.688 139.994 75.624 135.574 75.624ZM183.772 58.542L177.922 64.314V75H165.754V17.124H177.922V49.884L195.706 33.036H210.214L192.742 50.82L211.774 75H197.032L183.772 58.542ZM261.204 54.174C261.204 54.33 261.126 55.422 260.97 57.45H229.224C229.796 60.05 231.148 62.104 233.28 63.612C235.412 65.12 238.064 65.874 241.236 65.874C243.42 65.874 245.344 65.562 247.008 64.938C248.724 64.262 250.31 63.222 251.766 61.818L258.24 68.838C254.288 73.362 248.516 75.624 240.924 75.624C236.192 75.624 232.006 74.714 228.366 72.894C224.726 71.022 221.918 68.448 219.942 65.172C217.966 61.896 216.978 58.178 216.978 54.018C216.978 49.91 217.94 46.218 219.864 42.942C221.84 39.614 224.518 37.04 227.898 35.22C231.33 33.348 235.152 32.412 239.364 32.412C243.472 32.412 247.19 33.296 250.518 35.064C253.846 36.832 256.446 39.38 258.318 42.708C260.242 45.984 261.204 49.806 261.204 54.174ZM239.442 41.616C236.686 41.616 234.372 42.396 232.5 43.956C230.628 45.516 229.484 47.648 229.068 50.352H249.738C249.322 47.7 248.178 45.594 246.306 44.034C244.434 42.422 242.146 41.616 239.442 41.616ZM315.091 54.174C315.091 54.33 315.013 55.422 314.857 57.45H283.111C283.683 60.05 285.035 62.104 287.167 63.612C289.299 65.12 291.951 65.874 295.123 65.874C297.307 65.874 299.231 65.562 300.895 64.938C302.611 64.262 304.197 63.222 305.653 61.818L312.127 68.838C308.175 73.362 302.403 75.624 294.811 75.624C290.079 75.624 285.893 74.714 282.253 72.894C278.613 71.022 275.805 68.448 273.829 65.172C271.853 61.896 270.865 58.178 270.865 54.018C270.865 49.91 271.827 46.218 273.751 42.942C275.727 39.614 278.405 37.04 281.785 35.22C285.217 33.348 289.039 32.412 293.251 32.412C297.359 32.412 301.077 33.296 304.405 35.064C307.733 36.832 310.333 39.38 312.205 42.708C314.129 45.984 315.091 49.806 315.091 54.174ZM293.329 41.616C290.573 41.616 288.259 42.396 286.387 43.956C284.515 45.516 283.371 47.648 282.955 50.352H303.625C303.209 47.7 302.065 45.594 300.193 44.034C298.321 42.422 296.033 41.616 293.329 41.616ZM408.384 32.412C413.636 32.412 417.796 33.972 420.864 37.092C423.984 40.16 425.544 44.788 425.544 50.976V75H413.376V52.848C413.376 49.52 412.674 47.05 411.27 45.438C409.918 43.774 407.968 42.942 405.42 42.942C402.56 42.942 400.298 43.878 398.634 45.75C396.97 47.57 396.138 50.3 396.138 53.94V75H383.97V52.848C383.97 46.244 381.318 42.942 376.014 42.942C373.206 42.942 370.97 43.878 369.306 45.75C367.642 47.57 366.81 50.3 366.81 53.94V75H354.642V33.036H366.264V37.872C367.824 36.104 369.722 34.752 371.958 33.816C374.246 32.88 376.742 32.412 379.446 32.412C382.41 32.412 385.088 33.01 387.48 34.206C389.872 35.35 391.796 37.04 393.252 39.276C394.968 37.092 397.126 35.402 399.726 34.206C402.378 33.01 405.264 32.412 408.384 32.412ZM482.693 54.174C482.693 54.33 482.615 55.422 482.459 57.45H450.713C451.285 60.05 452.637 62.104 454.769 63.612C456.901 65.12 459.553 65.874 462.725 65.874C464.909 65.874 466.833 65.562 468.497 64.938C470.213 64.262 471.799 63.222 473.255 61.818L479.729 68.838C475.777 73.362 470.005 75.624 462.413 75.624C457.681 75.624 453.495 74.714 449.855 72.894C446.215 71.022 443.407 68.448 441.431 65.172C439.455 61.896 438.467 58.178 438.467 54.018C438.467 49.91 439.429 46.218 441.353 42.942C443.329 39.614 446.007 37.04 449.387 35.22C452.819 33.348 456.641 32.412 460.853 32.412C464.961 32.412 468.679 33.296 472.007 35.064C475.335 36.832 477.935 39.38 479.807 42.708C481.731 45.984 482.693 49.806 482.693 54.174ZM460.931 41.616C458.175 41.616 455.861 42.396 453.989 43.956C452.117 45.516 450.973 47.648 450.557 50.352H471.227C470.811 47.7 469.667 45.594 467.795 44.034C465.923 42.422 463.635 41.616 460.931 41.616Z"/>
        <path d="M202.964 106.419C199.193 105.476 199.035 108.383 199.428 109.954C288.114 180.078 324.649 98.4636 335.55 85.4996C335.786 81.0212 332.506 81.8658 330.836 82.8479C268.668 148.257 207.678 107.597 202.964 106.419Z"/>
        <rect x="190" y="110.545" width="15.9103" height="4.71418" rx="2.35709" transform="rotate(-63.0459 190 110.545)"/>
        <rect x="343.59" y="83.7634" width="15.9103" height="4.71418" rx="2.35709" transform="rotate(-133.671 343.59 83.7634)"/>

    </symbol>
</svg>



